<svg xmlns="http://www.w3.org/2000/svg" viewBox="0 0 1521.9 704.5">
  <defs>
    <clipPath id="a" clipPathUnits="userSpaceOnUse">
      <path d="M834.8 2717c0 889 721.5 1606.3 1610.6 1606.3 889 0 1606.3-717.3 1606.3-1606.3s-717.3-1610.6-1606.3-1610.6S834.8 1828 834.8 2717z"/>
    </clipPath>
  </defs>
  <g fill="#fff">
    <path d="M725.5 519.8h-37c0-29.7-15-74.2-29.8-74.2h-7.4v74.2h-37V260.1h37v148.4h7.4c14.9 0 29.7-44.5 29.7-74.2h37.1c0 59.4-29.7 92.8-29.7 92.8s29.7 33.4 29.7 92.7m94.6-37.1v-37h-18.5a18.4 18.4 0 0 0-18.6 18.5c0 10.4 8.2 18.5 18.6 18.5zm-55.6-148.4h37a55.6 55.6 0 0 1 55.7 55.7v129.8h-55.6a55.6 55.6 0 1 1 0-111.3H820V390c0-10.4-8.1-18.6-18.5-18.6h-48.3l11.2-37M961.6 390c0-10.4-8.2-18.6-18.5-18.6h-18.6v111.3h18.6c10.3 0 18.5-8.1 18.5-18.5zm-37 129.8V594h-37.2V334.3h55.7a55.6 55.6 0 0 1 55.6 55.7v74.2a55.6 55.6 0 0 1-55.6 55.6h-18.6m97.3-129.8a55.6 55.6 0 0 1 55.6-55.7h44.5l11.2 37.1h-55.7A18.4 18.4 0 0 0 1059 390c0 10.4 7.4 18.5 22.2 18.5a55.6 55.6 0 1 1 0 111.3H1033l-11.1-37h59.3c10.4 0 18.6-8.2 18.6-18.6 0-10.4-7.4-18.6-22.3-18.6a55.6 55.6 0 0 1-55.6-55.6m137.7-55.7h37v185.5h-37zm0-74.2h37v37.1h-37v-37m64.9 222.5h37v37.1h-37v-37m48.8-148.5h26v-18.5a56 56 0 0 1 55.6-55.7h55.7v37.1h-55.7c-11 0-18.5 9-18.5 18.6v18.5h74.2v185.5h-37.1V371.4h-37.1v148.4h-37.1V371.4h-37.1l11.1-37"/>
    <path d="M2445.4 4323.3c-97.2 0-192.3-9-284.8-25.5a18734.3 18734.3 0 0 1-80.8-1401.2c116 249 335 425.1 558.3 425.1 206.2 0 373.7-163.1 365.1-438-8.6-287.8-279.2-558.3-567-652.9a478.4 478.4 0 0 1 309.3-116c141.7 0 382.3 90.3 588.4 369.4 34.4 43 55.8 34.4 86 4.4 25.6-25.9 55.8-77.4 68.7-111.7 12.8-47.2 25.7-116-17.3-176-146-193.4-412.2-399.5-747.3-395.2-210.4 4.3-476.7 90.2-627 352.1 8.6-150.3 25.8-292 43-420.9 8.5-47.2-21.5-64.4-64.5-64.4-34.3 0-94.5 17.2-124.6 38.7-42.8 21.5-81.5 64.4-98.7 150.3-115.6 642-103.6 1659.8-27 2338.4-581.4-241.8-990.4-813.6-990.4-1483 0-889 721.5-1610.5 1610.6-1610.5 889 0 1606.3 721.5 1606.3 1610.6a1604 1604 0 0 1-1606.3 1606.3zM2590.9 2961c-124.5-4.3-339.3-244.8-429.5-571.3 305 94.6 515.4 330.7 515.4 472.5 0 55.8-21.5 98.8-85.9 98.8z" clip-path="url(#a)" transform="matrix(.13333 0 0 -.13333 0 704.5)"/>
  </g>
</svg>
