<?xml version="1.0" standalone="no"?>
<!DOCTYPE svg PUBLIC "-//W3C//DTD SVG 20010904//EN"
 "http://www.w3.org/TR/2001/REC-SVG-20010904/DTD/svg10.dtd">
<svg version="1.0" xmlns="http://www.w3.org/2000/svg"
 width="640.000000pt" height="640.000000pt" viewBox="0 0 640.000000 640.000000"
 preserveAspectRatio="xMidYMid meet">

<g transform="translate(0.000000,640.000000) scale(0.100000,-0.100000)"
fill="#000000" stroke="none">
<path d="M1350 3200 l0 -1850 175 0 175 0 0 45 0 45 -125 0 -125 0 0 1760 0
1760 125 0 125 0 0 45 0 45 -175 0 -175 0 0 -1850z"/>
<path d="M4700 5005 l0 -45 125 0 125 0 0 -1760 0 -1760 -125 0 -125 0 0 -45
0 -45 175 0 175 0 0 1850 0 1850 -175 0 -175 0 0 -45z"/>
<path d="M2568 3753 l-3 -318 -392 -3 -393 -2 0 -230 0 -230 393 -2 392 -3 3
-318 2 -317 233 2 232 3 5 315 5 315 765 2 c421 2 775 3 788 3 l22 0 0 233 0
232 -787 0 -788 0 -5 315 -5 315 -232 3 -233 2 -2 -317z"/>
</g>
</svg>
